<?xml version="1.0" encoding="utf-8"?>
<!-- Generator: Adobe Illustrator 27.3.1, SVG Export Plug-In . SVG Version: 6.00 Build 0)  -->
<svg version="1.1" id="Layer_1" xmlns="http://www.w3.org/2000/svg" xmlns:xlink="http://www.w3.org/1999/xlink" x="0px" y="0px"
	 viewBox="0 0 368.5 228.56" style="enable-background:new 0 0 368.5 228.56;" xml:space="preserve">
<style type="text/css">
	.st0{fill-rule:evenodd;clip-rule:evenodd;fill:#E2000F;}
	
		.st1{clip-path:url(#SVGID_00000131330973888334427030000011744230577720352645_);fill:url(#SVGID_00000156576661426708173400000012102230065407841673_);}
	.st2{fill:#FFFFFF;}
</style>
<path class="st0" d="M112.19,173.35c0,0,3.18,7.1,8.58,10.91c5.4,3.81,13.46,4.56,19.82,4.77c6.36,0.21,25.11,0.21,25.11,0.21
	s4.77-0.21,7.31,2.65c2.54,2.86,6.16,5.46,11.14,5.68c4.98,0.21,8.05-2.33,10.17-4.45c2.12-2.12,5.65-3.89,11.05-3.68
	c5.4,0.21,25.8-0.03,25.8-0.03s19.26-0.61,24.62-15.97h30.44c0,0,11.2-2.42,11.84-12.48l0.59-38.03c0,0,2.78-2.83,2.68-8.45
	c0.11-5.62-2.68-8.45-2.68-8.45L298.08,68c-0.64-10.07-11.84-12.48-11.84-12.48H255.8c-5.36-15.36-24.62-15.97-24.62-15.97
	s-20.39-0.24-25.8-0.03c-5.4,0.21-8.93-1.56-11.05-3.68c-2.12-2.12-5.19-4.66-10.17-4.45c-4.98,0.21-8.59,2.81-11.14,5.68
	c-2.54,2.86-7.31,2.65-7.31,2.65s-18.76,0-25.11,0.21c-6.36,0.21-14.41,0.95-19.82,4.77c-5.4,3.81-8.58,10.91-8.58,10.91
	s-20.81-0.3-30.56,0.76c-9.75,1.06-11.1,11.94-11.1,11.94l-0.03,38.21c-3.13,1.66-3.47,7.97-3.47,7.97s0.34,6.31,3.47,7.97
	l0.03,38.21c0,0,1.34,10.88,11.1,11.94C91.38,173.65,112.19,173.35,112.19,173.35"/>
<g>
	<defs>
		<path id="SVGID_1_" d="M165.55,180.74c5-0.16,10.47,1.72,13.83,5.5c1.38,1.56,2.99,2.74,5.14,2.83c1.69,0.07,2.66-0.83,3.8-1.97
			c4.61-4.61,11-6.42,17.4-6.16c8.27,0.32,16.95,0.06,25.27-0.04c2.29-0.09,5.41-0.88,7.53-1.68c4.21-1.6,7.72-4.2,9.26-8.59
			l1.99-5.7h35.34c2.06-0.67,4.25-2.14,4.48-4.37l0.64-41.18l2.11-2.13c0.41-0.69,0.53-1.89,0.52-2.61l0-0.16l0-0.16
			c0.01-0.72-0.1-1.93-0.52-2.61l-2.11-2.13l-0.64-41.18c-0.23-2.23-2.42-3.7-4.48-4.37h-35.34l-1.99-5.7
			c-2.31-6.61-10.28-9.97-16.81-10.27c-8.31-0.09-16.98-0.36-25.24-0.04c-6.4,0.25-12.79-1.55-17.4-6.16
			c-1.14-1.14-2.11-2.04-3.8-1.97c-2.15,0.09-3.76,1.27-5.14,2.83c-3.36,3.78-8.82,5.67-13.83,5.5c-8.19,0-16.5-0.07-24.67,0.21
			c-4.37,0.15-11.51,0.61-15.19,3.22c-2.22,1.57-4.59,4.96-5.73,7.46l-2.28,5.09l-5.59-0.08c-3.82-0.05-7.65-0.05-11.47-0.02
			c-5.89,0.05-12.2,0.09-18.05,0.73c-2.06,0.22-3.13,2.33-3.51,4.2L79,111.64l-3.21,1.7c-0.09,0.37-0.17,0.78-0.22,1.14
			c0.05,0.36,0.12,0.78,0.22,1.14l3.21,1.7l0.04,42.62c0.38,1.87,1.45,3.97,3.51,4.2c5.85,0.64,12.16,0.68,18.05,0.73
			c3.82,0.03,7.65,0.04,11.47-0.02l5.59-0.08l2.28,5.09c1.14,2.48,3.51,5.88,5.73,7.45c3.69,2.6,10.83,3.07,15.19,3.22
			C149.05,180.81,157.36,180.75,165.55,180.74"/>
	</defs>
	<clipPath id="SVGID_00000160164866032371850710000003758530929625607839_">
		<use xlink:href="#SVGID_1_"  style="overflow:visible;"/>
	</clipPath>
	
		<linearGradient id="SVGID_00000127005689433296501340000007720745165710819989_" gradientUnits="userSpaceOnUse" x1="75.5688" y1="114.4799" x2="292.8504" y2="114.4799">
		<stop  offset="0" style="stop-color:#AE7716"/>
		<stop  offset="0.13" style="stop-color:#F5D780"/>
		<stop  offset="0.25" style="stop-color:#FFFFD5"/>
		<stop  offset="0.37" style="stop-color:#F5D780"/>
		<stop  offset="0.5" style="stop-color:#AE7716"/>
		<stop  offset="0.6" style="stop-color:#F5D780"/>
		<stop  offset="0.61" style="stop-color:#F5D780"/>
		<stop  offset="0.73" style="stop-color:#FFFFD5"/>
		<stop  offset="0.85" style="stop-color:#F5D780"/>
		<stop  offset="1" style="stop-color:#AE7716"/>
	</linearGradient>
	
		<rect x="75.57" y="39.81" style="clip-path:url(#SVGID_00000160164866032371850710000003758530929625607839_);fill:url(#SVGID_00000127005689433296501340000007720745165710819989_);" width="217.28" height="149.34"/>
</g>
<path class="st0" d="M230.89,178.07c2.04-0.08,4.71-0.77,6.61-1.49c3.41-1.29,6.34-3.31,7.58-6.87l2.65-7.6h36.85
	c0.81-0.33,2-0.98,2.15-1.75l0.65-42.16l2.52-2.55c0.07-0.3,0.09-0.73,0.09-0.96l0-0.21l0-0.21c0-0.23-0.02-0.66-0.09-0.96
	l-2.52-2.55l-0.65-42.16c-0.15-0.77-1.34-1.42-2.15-1.75h-36.85l-2.65-7.6c-1.9-5.43-8.92-8.11-14.22-8.37
	c-8.34-0.09-16.71-0.37-25.05-0.04c-7.18,0.28-14.35-1.83-19.51-6.99c-0.41-0.41-1.03-1.17-1.67-1.14
	c-1.32,0.06-2.31,0.94-3.14,1.88c-3.92,4.41-10.17,6.63-15.99,6.46c-8.18,0-16.36-0.07-24.53,0.21c-3.7,0.12-10.58,0.53-13.65,2.7
	c-1.81,1.28-3.87,4.32-4.79,6.31l-3.03,6.78l-7.46-0.1c-3.8-0.05-7.61-0.05-11.41-0.02c-5.91,0.05-11.89,0.07-17.77,0.71
	c-0.44,0.05-0.83,1.15-0.98,1.71l-0.04,43.99l-2.15,1.14l2.15,1.14l0.04,43.99c0.15,0.57,0.54,1.67,0.98,1.71
	c5.88,0.64,11.86,0.66,17.77,0.71c3.8,0.03,7.61,0.04,11.41-0.02l7.46-0.1l3.04,6.8c0.9,2.01,2.97,5.02,4.78,6.3
	c3.07,2.17,9.96,2.58,13.65,2.7c8.17,0.27,16.36,0.21,24.53,0.21c5.82-0.17,12.07,2.05,15.99,6.46c0.83,0.94,1.83,1.82,3.14,1.88
	c0.65,0.03,1.26-0.73,1.67-1.14c5.16-5.16,12.33-7.27,19.51-6.99C214.18,178.44,222.57,178.17,230.89,178.07"/>
<g>
	<path class="st2" d="M126.82,111.51h-5.46c0.11-0.34,0.17-0.98,0.17-1.92l-0.04-1.66l-0.98-18.05l-6.36,17.83
		c-0.68,1.85-1.08,3.11-1.19,3.8h-5.85c-0.2-1-0.58-2.28-1.15-3.84L99.6,89.83l-1.02,18.13l-0.04,1.96c0,0.77,0.03,1.29,0.09,1.58
		h-5.16c0.26-0.68,0.43-1.91,0.51-3.67l1.24-22.02l0.09-2.35l-0.04-1.41h6.87c0.17,1.02,0.5,2.22,0.98,3.58l7.04,19.58L117,86.08
		c0.17-0.51,0.33-1.05,0.49-1.6c0.16-0.55,0.33-1.36,0.53-2.41h6.87l0.17,3.8l1.19,22.02c0.03,0.46,0.06,0.89,0.11,1.3
		c0.04,0.41,0.09,0.78,0.15,1.11C126.57,110.62,126.67,111.02,126.82,111.51z"/>
	<path class="st2" d="M137.95,111.51h-5.42c0.2-0.91,0.3-2.25,0.3-4.01V86.12c0-1.71-0.1-3.06-0.3-4.05h5.42
		c0,0.03-0.02,0.19-0.06,0.49c-0.04,0.3-0.09,0.73-0.13,1.3c-0.04,0.57-0.06,1.32-0.06,2.26v21.38
		C137.7,109.4,137.78,110.74,137.95,111.51z"/>
	<path class="st2" d="M172.38,111.51h-6.7c-0.34-0.71-1.1-1.89-2.26-3.54l-14.29-19.84v19.37c0,2.25,0.1,3.58,0.3,4.01h-5.33
		c0-0.03,0.01-0.1,0.02-0.21c0.01-0.11,0.05-0.38,0.11-0.79c0.06-0.41,0.09-1.42,0.09-3.01V86.46c0-2.16-0.07-3.63-0.21-4.4h6.7
		c0.17,0.48,0.97,1.72,2.39,3.71l14.12,19.75v-19.2c0-1.99-0.09-3.41-0.26-4.27h5.33c-0.14,0.63-0.21,2.05-0.21,4.27v20.78
		c0,0.88,0.01,1.65,0.04,2.3c0.03,0.65,0.06,1.16,0.11,1.51C172.36,111.29,172.38,111.48,172.38,111.51z"/>
	<path class="st2" d="M195.51,111.51h-17.24c0.09-0.37,0.14-0.74,0.17-1.11c0.03-0.37,0.04-1.52,0.04-3.46V85.61
		c0-1.93-0.07-3.11-0.21-3.54h16.34v4.65c-0.43-0.17-1.69-0.26-3.8-0.26h-7.42v7.68h6.61c1.56,0,2.69-0.06,3.37-0.17v4.74
		c-0.63-0.14-1.98-0.21-4.05-0.21h-5.93v8.66h8.58c1.9,0,3.09-0.09,3.54-0.26V111.51z"/>
	<path class="st2" d="M223.88,111.51h-7l-1.66-1.92l-9.6-10.58v8.41c0,2.3,0.08,3.67,0.26,4.1h-5.42c0.17-0.51,0.26-1.88,0.26-4.1
		V86.12c0-1.99-0.07-3.34-0.21-4.05c1,0,2.6-0.09,4.8-0.28c2.2-0.18,3.8-0.28,4.8-0.28c1.93,0,3.54,0.31,4.82,0.92
		c1.28,0.61,2.25,1.47,2.92,2.56c0.67,1.1,1,2.45,1,4.07c0,1.39-0.25,2.7-0.75,3.9c-0.5,1.21-1.23,2.24-2.2,3.09
		c-1.2,0.97-2.8,1.69-4.82,2.18l8.88,9.64C221.72,109.84,223.03,111.05,223.88,111.51z M213.9,89.79c0-1.48-0.39-2.55-1.17-3.2
		c-0.78-0.65-1.97-0.98-3.56-0.98c-0.71,0-1.89,0.09-3.54,0.26v8.96l2.09,0.13c1.22,0,2.3-0.19,3.24-0.58
		c0.94-0.38,1.66-0.96,2.18-1.73C213.64,91.88,213.9,90.93,213.9,89.79z"/>
</g>
<g>
	<path class="st2" d="M250.59,82.07c-0.54,0.88-1.22,2.38-2.05,4.48l-8.19,21.25c-0.6,1.54-1.04,2.77-1.32,3.71h-6.06
		c-0.17-0.77-0.58-2.01-1.24-3.71l-8.15-21.16c-0.85-2.3-1.52-3.83-2-4.57h6.02c0,0.26,0.09,0.73,0.26,1.43
		c0.17,0.7,0.45,1.56,0.85,2.58l7.42,19.5c1.59-4.01,4.1-10.51,7.51-19.5c0.63-1.65,1.02-2.99,1.2-4.01H250.59z"/>
</g>
<g>
	<path class="st2" d="M275.98,111.51h-5.84c0-0.03-0.01-0.1-0.02-0.21c-0.01-0.11-0.04-0.28-0.09-0.49
		c-0.04-0.21-0.13-0.53-0.26-0.94c-0.13-0.41-0.31-0.95-0.53-1.6l-2.26-6.27h-9.98l-2.3,6.49c-0.46,1.22-0.74,2.23-0.85,3.03h-5.8
		c0.37-0.4,0.94-1.66,1.71-3.8l8.19-22.57c0.6-1.68,0.9-2.7,0.9-3.07h6.36c0,0.43,0.28,1.41,0.85,2.94l8.15,22.49
		C275.04,109.83,275.64,111.17,275.98,111.51z M265.74,97.85l-3.88-10.24l-3.71,10.24H265.74z"/>
</g>
<g>
	<path class="st2" d="M132.98,126.29c-0.88-0.14-1.55-0.22-2.01-0.24c-0.46-0.01-0.77-0.02-0.94-0.02h-8.32v7.64h7.08
		c1.65,0,2.62-0.06,2.9-0.17v4.74c-0.2-0.11-1.21-0.17-3.03-0.17h-6.95v9.22c0,2.3,0.06,3.57,0.17,3.8h-5.29
		c0.14-0.43,0.21-1.85,0.21-4.27v-21.12c0-2.19-0.09-3.54-0.26-4.05h16.43V126.29z"/>
	<path class="st2" d="M166.35,136.19c0,2.25-0.33,4.34-1,6.27c-0.67,1.94-1.65,3.61-2.94,5.04c-1.29,1.42-2.87,2.52-4.74,3.29
		c-1.86,0.77-3.93,1.15-6.21,1.15c-2.19,0-4.22-0.38-6.08-1.13c-1.86-0.75-3.47-1.82-4.82-3.2c-1.35-1.38-2.39-3.02-3.11-4.93
		c-0.73-1.91-1.09-3.94-1.09-6.1c0-2.22,0.33-4.29,1-6.23c0.67-1.93,1.64-3.61,2.9-5.03c1.27-1.42,2.83-2.52,4.69-3.31
		c1.86-0.78,3.92-1.17,6.17-1.17c2.22,0,4.27,0.38,6.14,1.13c1.88,0.75,3.5,1.81,4.86,3.18s2.41,3,3.14,4.91
		C165.98,131.95,166.35,133.99,166.35,136.19z M161.18,136.74c0-1.65-0.21-3.19-0.64-4.61c-0.43-1.42-1.07-2.66-1.92-3.71
		c-0.85-1.05-1.94-1.87-3.26-2.45s-2.84-0.88-4.54-0.88c-2.05,0-3.75,0.41-5.12,1.24c-1.37,0.83-2.41,2.03-3.14,3.63
		c-0.73,1.59-1.09,3.61-1.09,6.06c0,1.65,0.21,3.19,0.64,4.61c0.43,1.42,1.07,2.66,1.94,3.71c0.87,1.05,1.96,1.87,3.26,2.45
		c1.31,0.58,2.8,0.88,4.48,0.88c2.05,0,3.75-0.41,5.12-1.22c1.37-0.81,2.42-2.01,3.16-3.61
		C160.81,141.25,161.18,139.21,161.18,136.74z"/>
	<path class="st2" d="M199.46,136.19c0,2.25-0.33,4.34-1,6.27c-0.67,1.94-1.65,3.61-2.94,5.04c-1.29,1.42-2.87,2.52-4.74,3.29
		c-1.86,0.77-3.93,1.15-6.21,1.15c-2.19,0-4.22-0.38-6.08-1.13c-1.86-0.75-3.47-1.82-4.82-3.2c-1.35-1.38-2.39-3.02-3.11-4.93
		c-0.73-1.91-1.09-3.94-1.09-6.1c0-2.22,0.33-4.29,1-6.23c0.67-1.93,1.64-3.61,2.9-5.03c1.27-1.42,2.83-2.52,4.69-3.31
		c1.86-0.78,3.92-1.17,6.17-1.17c2.22,0,4.27,0.38,6.14,1.13c1.88,0.75,3.5,1.81,4.86,3.18s2.41,3,3.14,4.91
		C199.09,131.95,199.46,133.99,199.46,136.19z M194.29,136.74c0-1.65-0.21-3.19-0.64-4.61c-0.43-1.42-1.07-2.66-1.92-3.71
		c-0.85-1.05-1.94-1.87-3.26-2.45c-1.32-0.58-2.84-0.88-4.54-0.88c-2.05,0-3.75,0.41-5.12,1.24c-1.37,0.83-2.41,2.03-3.14,3.63
		c-0.73,1.59-1.09,3.61-1.09,6.06c0,1.65,0.21,3.19,0.64,4.61c0.43,1.42,1.07,2.66,1.94,3.71c0.87,1.05,1.96,1.87,3.26,2.45
		c1.31,0.58,2.8,0.88,4.48,0.88c2.05,0,3.75-0.41,5.12-1.22c1.37-0.81,2.42-2.01,3.16-3.61
		C193.92,141.25,194.29,139.21,194.29,136.74z"/>
	<path class="st2" d="M231.37,135.67c0,1.76-0.25,3.48-0.75,5.16c-0.5,1.68-1.2,3.17-2.11,4.48c-2.82,3.98-7.55,5.97-14.21,5.97
		l-9.09-0.21h-1.15c0.11-0.68,0.17-2.16,0.17-4.44V126.2c0-1.99-0.06-3.51-0.17-4.57h1.32c1.22,0,3.01-0.08,5.38-0.26
		s4.08-0.26,5.16-0.26c2.45,0,4.44,0.21,5.97,0.64c1.14,0.31,2.28,0.79,3.43,1.43c1.15,0.64,2.17,1.51,3.05,2.6
		c0.88,1.1,1.6,2.45,2.15,4.08C231.09,131.49,231.37,133.43,231.37,135.67z M226.42,136.01c0-3.53-0.95-6.22-2.84-8.08
		s-4.59-2.79-8.08-2.79c-2.65,0-4.76,0.16-6.36,0.47v21.33c0.6,0.08,1.4,0.17,2.41,0.26c1.01,0.09,1.81,0.13,2.41,0.13
		c2.02,0,3.8-0.21,5.33-0.62c1.54-0.41,2.83-1.06,3.88-1.94s1.86-2.05,2.41-3.52C226.14,139.78,226.42,138.03,226.42,136.01z"/>
	<path class="st2" d="M251.64,143.1c0,0.91-0.14,1.87-0.43,2.88s-0.83,2-1.62,2.99c-0.8,0.98-1.81,1.72-3.03,2.22
		c-1.22,0.5-2.46,0.75-3.71,0.75c-2.67,0-5.39-0.67-8.15-2.01v-5.46c0.51,0.6,1.31,1.19,2.39,1.79c1.08,0.6,2.12,1.02,3.11,1.26
		c1,0.24,1.81,0.36,2.43,0.36c1.37,0,2.41-0.41,3.14-1.22s1.09-1.91,1.09-3.31c0-0.68-0.18-1.33-0.53-1.94
		c-0.36-0.61-0.85-1.13-1.49-1.56c-0.64-0.43-1.66-1.01-3.05-1.75c-2.45-1.28-4.08-2.32-4.89-3.12c-0.81-0.8-1.42-1.67-1.81-2.62
		c-0.4-0.95-0.6-2.07-0.6-3.35c0-1.28,0.18-2.38,0.55-3.29c0.37-0.91,0.85-1.71,1.45-2.39s1.45-1.28,2.56-1.79
		c1.11-0.51,2.43-0.77,3.97-0.77c2.62,0,4.89,0.4,6.83,1.2v4.74c-0.71-0.57-1.67-1.06-2.88-1.47c-1.21-0.41-2.41-0.62-3.61-0.62
		c-1.28,0-2.28,0.37-3.01,1.11c-0.73,0.74-1.09,1.74-1.09,2.99c0,1.56,0.95,2.89,2.86,3.97c0.34,0.2,1.15,0.63,2.43,1.28
		c1.28,0.65,2.35,1.28,3.22,1.88c0.87,0.6,1.57,1.25,2.11,1.94c0.54,0.7,0.97,1.47,1.28,2.3
		C251.48,140.93,251.64,141.93,251.64,143.1z"/>
</g>
</svg>
